<svg width="16" height="16" viewBox="0 0 16 16" fill="none" xmlns="http://www.w3.org/2000/svg">
<path d="M10.794 1.33301H5.20732C2.78065 1.33301 1.33398 2.77967 1.33398 5.20634V10.7863C1.33398 13.2197 2.78065 14.6663 5.20732 14.6663H10.7873C13.214 14.6663 14.6607 13.2197 14.6607 10.793V5.20634C14.6673 2.77967 13.2207 1.33301 10.794 1.33301ZM7.30065 11.673C7.10732 11.8663 6.74065 12.053 6.47398 12.093L4.83398 12.3263C4.77398 12.333 4.71398 12.3397 4.65398 12.3397C4.38065 12.3397 4.12732 12.2463 3.94732 12.0663C3.72732 11.8463 3.63398 11.5263 3.68732 11.173L3.92065 9.53301C3.96065 9.25968 4.14065 8.89967 4.34065 8.70634L7.31398 5.73301C7.36732 5.87301 7.42065 6.01301 7.49398 6.17301C7.56065 6.31301 7.63398 6.45967 7.71398 6.59301C7.78065 6.70634 7.85398 6.81301 7.91398 6.89301C7.98732 7.00634 8.07398 7.11301 8.12732 7.17301C8.16065 7.21967 8.18732 7.25301 8.20065 7.26634C8.36732 7.46634 8.56065 7.65301 8.72732 7.79301C8.77398 7.83967 8.80065 7.86634 8.81398 7.87301C8.91398 7.95301 9.01398 8.03301 9.10065 8.09301C9.20732 8.17301 9.31398 8.24634 9.42732 8.30634C9.56065 8.38634 9.70732 8.45967 9.85398 8.53301C10.0073 8.59967 10.1473 8.65968 10.2873 8.70634L7.30065 11.673ZM11.5807 7.39301L10.9673 8.01301C10.9273 8.05301 10.874 8.07301 10.8207 8.07301C10.8007 8.07301 10.774 8.07301 10.7607 8.06634C9.40732 7.67968 8.32732 6.59967 7.94065 5.24634C7.92065 5.17301 7.94065 5.09301 7.99398 5.04634L8.61398 4.42634C9.62732 3.41301 10.594 3.43301 11.5873 4.42634C12.094 4.93301 12.3407 5.41967 12.3407 5.92634C12.334 6.40634 12.0873 6.88634 11.5807 7.39301Z" fill="white"/>
</svg>
