<svg width="24" height="24" viewBox="0 0 24 24" fill="none" xmlns="http://www.w3.org/2000/svg">
<path d="M17.5 20.9167C20.4792 20.9167 22.9167 18.4792 22.9167 15.5C22.9167 12.5208 20.4792 10.0833 17.5 10.0833C14.5208 10.0833 12.0833 12.5208 12.0833 15.5C12.0833 18.4792 14.5208 20.9167 17.5 20.9167Z" fill="black" stroke="#0A0909" stroke-width="1.5" stroke-linecap="round" stroke-linejoin="round"/>
<path d="M15.9671 17.0329L19.0329 13.9671" stroke="white" stroke-width="1.5" stroke-linecap="round" stroke-linejoin="round"/>
<path d="M19.0329 17.0329L15.9671 13.9671" stroke="white" stroke-width="1.5" stroke-linecap="round" stroke-linejoin="round"/>
<path d="M1.99001 5.93001V4.42001C1.99001 3.40001 2.82001 2.57001 3.84001 2.57001H16.76C17.78 2.57001 18.61 3.40001 18.61 4.42001V5.93001" stroke="#212121" stroke-width="1.5" stroke-linecap="round" stroke-linejoin="round"/>
<path d="M10.3 18.1V3.32001" stroke="#212121" stroke-width="1.5" stroke-linecap="round" stroke-linejoin="round"/>
<path d="M6.89999 18.1H12.48" stroke="#212121" stroke-width="1.5" stroke-linecap="round" stroke-linejoin="round"/>
<path d="M17.5 20.9167C20.4792 20.9167 22.9167 18.4792 22.9167 15.5C22.9167 12.5208 20.4792 10.0833 17.5 10.0833C14.5208 10.0833 12.0833 12.5208 12.0833 15.5C12.0833 18.4792 14.5208 20.9167 17.5 20.9167Z" fill="#212121" stroke="#212121" stroke-width="1.5" stroke-linecap="round" stroke-linejoin="round"/>
<path d="M15.9671 17.0329L19.0329 13.9671" stroke="white" stroke-width="1.5" stroke-linecap="round" stroke-linejoin="round"/>
<path d="M19.0329 17.0329L15.9671 13.9671" stroke="white" stroke-width="1.5" stroke-linecap="round" stroke-linejoin="round"/>
</svg>
