<svg width="14" height="16" viewBox="0 0 14 16" fill="none" xmlns="http://www.w3.org/2000/svg">
<path d="M13.0467 3.48666C11.9733 3.38 10.9 3.3 9.82 3.24V3.23333L9.67334 2.36666C9.57334 1.75333 9.42667 0.833328 7.86667 0.833328H6.12C4.56667 0.833328 4.42 1.71333 4.31334 2.35999L4.17334 3.21333C3.55334 3.25333 2.93334 3.29333 2.31334 3.35333L0.953337 3.48666C0.673337 3.51333 0.473337 3.76 0.500003 4.03333C0.52667 4.30666 0.76667 4.50666 1.04667 4.47999L2.40667 4.34666C5.9 4 9.42 4.13333 12.9533 4.48666C12.9733 4.48666 12.9867 4.48666 13.0067 4.48666C13.26 4.48666 13.48 4.29333 13.5067 4.03333C13.5267 3.76 13.3267 3.51333 13.0467 3.48666Z" fill="white"/>
<path d="M11.82 5.42666C11.66 5.26 11.44 5.16666 11.2133 5.16666H2.78667C2.56001 5.16666 2.33334 5.26 2.18001 5.42666C2.02667 5.59333 1.94001 5.82 1.95334 6.05333L2.36667 12.8933C2.44001 13.9067 2.53334 15.1733 4.86001 15.1733H9.14001C11.4667 15.1733 11.56 13.9133 11.6333 12.8933L12.0467 6.06C12.06 5.82 11.9733 5.59333 11.82 5.42666ZM8.10667 11.8333H5.88667C5.61334 11.8333 5.38667 11.6067 5.38667 11.3333C5.38667 11.06 5.61334 10.8333 5.88667 10.8333H8.10667C8.38001 10.8333 8.60667 11.06 8.60667 11.3333C8.60667 11.6067 8.38001 11.8333 8.10667 11.8333ZM8.66667 9.16666H5.33334C5.06001 9.16666 4.83334 8.94 4.83334 8.66666C4.83334 8.39333 5.06001 8.16666 5.33334 8.16666H8.66667C8.94001 8.16666 9.16667 8.39333 9.16667 8.66666C9.16667 8.94 8.94001 9.16666 8.66667 9.16666Z" fill="white"/>
</svg>
