<svg width="14" height="14" viewBox="0 0 14 14" fill="none" xmlns="http://www.w3.org/2000/svg">
<path d="M9.79333 0.333328H4.20666C1.77999 0.333328 0.333328 1.77999 0.333328 4.20666V9.79333C0.333328 12.22 1.77999 13.6667 4.20666 13.6667H9.79333C12.22 13.6667 13.6667 12.22 13.6667 9.79333V4.20666C13.6667 1.77999 12.22 0.333328 9.79333 0.333328ZM5.64666 8.93333L4.14666 10.4333C4.04666 10.5333 3.92 10.58 3.79333 10.58C3.66666 10.58 3.53333 10.5333 3.43999 10.4333L2.93999 9.93333C2.73999 9.73999 2.73999 9.42 2.93999 9.22666C3.13333 9.03333 3.44666 9.03333 3.64666 9.22666L3.79333 9.37333L4.93999 8.22666C5.13333 8.03333 5.44666 8.03333 5.64666 8.22666C5.84 8.42 5.84 8.73999 5.64666 8.93333ZM5.64666 4.26666L4.14666 5.76666C4.04666 5.86666 3.92 5.91333 3.79333 5.91333C3.66666 5.91333 3.53333 5.86666 3.43999 5.76666L2.93999 5.26666C2.73999 5.07333 2.73999 4.75333 2.93999 4.56C3.13333 4.36666 3.44666 4.36666 3.64666 4.56L3.79333 4.70666L4.93999 3.56C5.13333 3.36666 5.44666 3.36666 5.64666 3.56C5.84 3.75333 5.84 4.07333 5.64666 4.26666ZM10.7067 10.08H7.20666C6.93333 10.08 6.70666 9.85333 6.70666 9.58C6.70666 9.30666 6.93333 9.08 7.20666 9.08H10.7067C10.9867 9.08 11.2067 9.30666 11.2067 9.58C11.2067 9.85333 10.9867 10.08 10.7067 10.08ZM10.7067 5.41333H7.20666C6.93333 5.41333 6.70666 5.18666 6.70666 4.91333C6.70666 4.63999 6.93333 4.41333 7.20666 4.41333H10.7067C10.9867 4.41333 11.2067 4.63999 11.2067 4.91333C11.2067 5.18666 10.9867 5.41333 10.7067 5.41333Z" fill="white"/>
</svg>
