<svg width="14" height="14" viewBox="0 0 14 14" fill="none" xmlns="http://www.w3.org/2000/svg">
<path d="M9.79333 0.333336H4.20666C1.77999 0.333336 0.333328 1.78 0.333328 4.20667V9.78667C0.333328 12.22 1.77999 13.6667 4.20666 13.6667H9.78666C12.2133 13.6667 13.66 12.22 13.66 9.79334V4.20667C13.6667 1.78 12.22 0.333336 9.79333 0.333336ZM6.29999 10.6733C6.10666 10.8667 5.74 11.0533 5.47333 11.0933L3.83333 11.3267C3.77333 11.3333 3.71333 11.34 3.65333 11.34C3.38 11.34 3.12666 11.2467 2.94666 11.0667C2.72666 10.8467 2.63333 10.5267 2.68666 10.1733L2.92 8.53334C2.96 8.26 3.14 7.9 3.34 7.70667L6.31333 4.73334C6.36666 4.87334 6.41999 5.01334 6.49333 5.17334C6.55999 5.31334 6.63333 5.46 6.71333 5.59334C6.77999 5.70667 6.85333 5.81334 6.91333 5.89334C6.98666 6.00667 7.07333 6.11334 7.12666 6.17334C7.15999 6.22 7.18666 6.25334 7.2 6.26667C7.36666 6.46667 7.56 6.65334 7.72666 6.79334C7.77333 6.84 7.8 6.86667 7.81333 6.87334C7.91333 6.95334 8.01333 7.03334 8.09999 7.09334C8.20666 7.17334 8.31333 7.24667 8.42666 7.30667C8.56 7.38667 8.70666 7.46 8.85333 7.53334C9.00666 7.6 9.14666 7.66 9.28666 7.70667L6.29999 10.6733ZM10.58 6.39334L9.96666 7.01334C9.92666 7.05334 9.87333 7.07334 9.81999 7.07334C9.79999 7.07334 9.77333 7.07334 9.75999 7.06667C8.40666 6.68 7.32666 5.6 6.94 4.24667C6.92 4.17334 6.93999 4.09334 6.99333 4.04667L7.61333 3.42667C8.62666 2.41334 9.59333 2.43334 10.5867 3.42667C11.0933 3.93334 11.34 4.42 11.34 4.92667C11.3333 5.40667 11.0867 5.88667 10.58 6.39334Z" fill="white"/>
</svg>
