<svg width="32" height="32" viewBox="0 0 32 32" fill="none" xmlns="http://www.w3.org/2000/svg">
<rect width="32" height="32" rx="8" fill="#F5F5F5"/>
<path d="M24.5999 8.1001V10.3001C24.5999 11.1001 24.0999 12.1001 23.5999 12.6001L19.2999 16.4001C18.6999 16.9001 18.2999 17.9001 18.2999 18.7001V23.0001C18.2999 23.6001 17.8999 24.4001 17.3999 24.7001L15.9999 25.6001C14.6999 26.4001 12.8999 25.5001 12.8999 23.9001V18.6001C12.8999 17.9001 12.4999 17.0001 12.0999 16.5001L11.6299 16.0101C11.3199 15.6801 11.2599 15.1801 11.5099 14.7901L16.6299 6.5701C16.8099 6.2801 17.1299 6.1001 17.4799 6.1001H22.5999C23.6999 6.1001 24.5999 7.0001 24.5999 8.1001Z" fill="#212121"/>
<path d="M14.3499 7.6301L10.7999 13.3201C10.4599 13.8701 9.6799 13.9501 9.2299 13.4801L8.2999 12.5001C7.7999 12.0001 7.3999 11.1001 7.3999 10.5001V8.2001C7.3999 7.0001 8.2999 6.1001 9.3999 6.1001H13.4999C14.2799 6.1001 14.7599 6.9601 14.3499 7.6301Z" fill="#212121"/>
</svg>
