<svg width="12" height="12" viewBox="0 0 12 12" fill="none" xmlns="http://www.w3.org/2000/svg">
<path d="M6.54878 0.380628C7.04086 -0.111589 7.85801 -0.141936 8.39221 0.380628L11.6182 3.60752C12.1273 4.11671 12.1273 4.94227 11.6182 5.45146C11.1261 5.94367 10.309 5.97982 9.77478 5.45146L9.54438 5.22085L7.62073 7.14502C8.20105 8.71606 7.81252 10.6548 6.54878 11.9052C6.41236 12.0402 6.2024 12.0226 6.08792 11.9052L3.32265 9.13913L1.24891 11.2138C1.12165 11.3411 0.915316 11.3411 0.788054 11.2138C0.670581 11.0963 0.649938 10.8921 0.788054 10.7528L2.86186 8.67821L0.0967673 5.91244C-0.0207056 5.79494 -0.0433118 5.59158 0.0967673 5.45146C1.32977 4.21811 3.20259 3.77668 4.85535 4.37888L6.779 2.45471L6.54878 2.22457C6.02351 1.69645 6.0567 0.872844 6.54878 0.380628Z" fill="white"/>
</svg>
