<svg width="16" height="16" viewBox="0 0 16 16" fill="none" xmlns="http://www.w3.org/2000/svg">
<path d="M7.99947 11.2001C9.5336 11.2001 10.7773 10.0061 10.7773 8.53338C10.7773 7.06061 9.5336 5.8667 7.99947 5.8667C6.46534 5.8667 5.22168 7.06061 5.22168 8.53338C5.22168 10.0061 6.46534 11.2001 7.99947 11.2001Z" fill="#212121"/>
<path d="M13.5552 4.26651H11.7934C11.5706 4.26651 11.3615 4.18318 11.2039 4.03213L10.1883 3.05713C9.92595 2.8053 9.5771 2.6665 9.20601 2.6665H6.79335C6.42225 2.6665 6.0734 2.8053 5.81108 3.05713L4.79546 4.03213C4.63785 4.18318 4.42871 4.26651 4.206 4.26651H2.44413C1.83132 4.26651 1.33301 4.74488 1.33301 5.33316V12.2665C1.33301 12.8548 1.83132 13.3332 2.44413 13.3332H13.5553C14.168 13.3332 14.6664 12.8548 14.6664 12.2665V5.33316C14.6663 4.74488 14.168 4.26651 13.5552 4.26651ZM7.99968 11.7332C6.16158 11.7332 4.66634 10.2977 4.66634 8.53316C4.66634 6.76859 6.16158 5.33316 7.99968 5.33316C9.83778 5.33316 11.333 6.76859 11.333 8.53316C11.333 10.2977 9.83778 11.7332 7.99968 11.7332ZM12.4441 6.93316C12.1379 6.93316 11.8886 6.69383 11.8886 6.39983C11.8886 6.10583 12.1379 5.86651 12.4441 5.86651C12.7504 5.86651 12.9997 6.10583 12.9997 6.39983C12.9997 6.69383 12.7504 6.93316 12.4441 6.93316Z" fill="#212121"/>
</svg>
