<svg width="33" height="32" viewBox="0 0 33 32" fill="none" xmlns="http://www.w3.org/2000/svg">
<path d="M23.8734 10.3603C23.7801 10.347 23.6867 10.347 23.5934 10.3603C21.5267 10.2937 19.8867 8.60033 19.8867 6.52033C19.8867 4.40033 21.6067 2.66699 23.7401 2.66699C25.8601 2.66699 27.5934 4.38699 27.5934 6.52033C27.5801 8.60033 25.9401 10.2937 23.8734 10.3603Z" fill="#64893C"/>
<path d="M28.2205 19.5996C26.7271 20.5996 24.6338 20.9729 22.7005 20.7196C23.2071 19.6262 23.4738 18.4129 23.4871 17.1329C23.4871 15.7996 23.1938 14.5329 22.6338 13.4262C24.6071 13.1596 26.7005 13.5329 28.2071 14.5329C30.3138 15.9196 30.3138 18.1996 28.2205 19.5996Z" fill="#64893C"/>
<path d="M9.08655 10.3603C9.17988 10.347 9.27322 10.347 9.36655 10.3603C11.4332 10.2937 13.0732 8.60033 13.0732 6.52033C13.0732 4.38699 11.3532 2.66699 9.21988 2.66699C7.09988 2.66699 5.37988 4.38699 5.37988 6.52033C5.37988 8.60033 7.01988 10.2937 9.08655 10.3603Z" fill="#64893C"/>
<path d="M9.23349 17.1331C9.23349 18.4265 9.51349 19.6531 10.0202 20.7598C8.14016 20.9598 6.18016 20.5598 4.74016 19.6131C2.63349 18.2131 2.63349 15.9331 4.74016 14.5331C6.16682 13.5731 8.18016 13.1865 10.0735 13.3998C9.52682 14.5198 9.23349 15.7865 9.23349 17.1331Z" fill="#64893C"/>
<path d="M16.6604 21.16C16.5537 21.1467 16.4337 21.1467 16.3137 21.16C13.8604 21.08 11.9004 19.0667 11.9004 16.5867C11.9137 14.0533 13.9537 12 16.5004 12C19.0337 12 21.0871 14.0533 21.0871 16.5867C21.0737 19.0667 19.1271 21.08 16.6604 21.16Z" fill="#64893C"/>
<path d="M12.3264 23.9195C10.3131 25.2662 10.3131 27.4795 12.3264 28.8129C14.6197 30.3462 18.3797 30.3462 20.6731 28.8129C22.6864 27.4662 22.6864 25.2529 20.6731 23.9195C18.3931 22.3862 14.6331 22.3862 12.3264 23.9195Z" fill="#64893C"/>
</svg>
