<svg width="20" height="18" viewBox="0 0 20 18" fill="none" xmlns="http://www.w3.org/2000/svg">
<path d="M12.9309 11.2495C12.7284 11.2464 12.5352 11.1596 12.3931 11.0079C12.251 10.8561 12.1713 10.6516 12.1713 10.4386C12.1713 10.2256 12.251 10.0211 12.3931 9.86934C12.5352 9.7176 12.7284 9.63079 12.9308 9.62767C13.1333 9.63078 13.3264 9.71758 13.4685 9.86931C13.6107 10.021 13.6903 10.2255 13.6903 10.4386C13.6904 10.6516 13.6107 10.8561 13.4686 11.0078C13.3265 11.1596 13.1333 11.2464 12.9309 11.2495ZM17.4393 7.48362C16.3314 -2.52254 3.75003 -2.48055 2.69134 7.52591C-1.01237 7.64111 -0.82891 13.6035 2.84398 13.4862C3.09553 14.7454 3.74572 15.8776 4.68822 16.6975C5.63071 17.5175 6.80974 17.9766 8.03247 18H9.45292C9.64051 17.9962 9.8192 17.9152 9.9506 17.7743C10.082 17.6334 10.1556 17.4438 10.1556 17.2464C10.1556 17.049 10.082 16.8595 9.95057 16.7186C9.81917 16.5777 9.64046 16.4967 9.45288 16.4929H8.03247C5.76949 16.5024 4.10544 14.3933 4.0898 11.9366C4.08726 11.0636 4.09146 9.15416 4.08971 8.27869C4.39608 -0.7487 15.736 -0.750525 16.0428 8.27874V12.6656C16.0428 12.8655 16.1183 13.0571 16.2526 13.1985C16.3869 13.3398 16.5691 13.4192 16.759 13.4192H17.1968C17.9214 13.4128 18.616 13.1138 19.1372 12.5841C19.6583 12.0544 19.9663 11.3343 19.9974 10.5726C20.0285 9.81083 19.7804 9.06561 19.3044 8.49078C18.8283 7.91595 18.1607 7.55542 17.4393 7.48362ZM10.0661 9.62767C9.86369 9.63079 9.67054 9.7176 9.52842 9.86934C9.38631 10.0211 9.30665 10.2256 9.30665 10.4386C9.30666 10.6516 9.38633 10.8561 9.52845 11.0079C9.67058 11.1596 9.86374 11.2464 10.0662 11.2495C10.2686 11.2464 10.4618 11.1596 10.6039 11.0078C10.746 10.8561 10.8257 10.6516 10.8257 10.4386C10.8257 10.2255 10.746 10.021 10.6039 9.86931C10.4618 9.71758 10.2686 9.63078 10.0661 9.62767ZM6.43082 10.4386C6.43372 10.6516 6.5162 10.8549 6.66042 11.0045C6.80465 11.1541 6.99903 11.2379 7.20154 11.2379C7.40405 11.2379 7.59843 11.1541 7.74264 11.0045C7.88686 10.8549 7.96933 10.6516 7.97222 10.4385C7.96931 10.2255 7.88684 10.0222 7.74261 9.87257C7.59839 9.72298 7.40401 9.63913 7.2015 9.63913C6.99898 9.63914 6.80461 9.72301 6.66039 9.8726C6.51618 10.0222 6.43371 10.2255 6.43082 10.4386Z" fill="#64893C"/>
</svg>
