<svg width="24" height="24" viewBox="0 0 24 24" fill="none" xmlns="http://www.w3.org/2000/svg">
<rect width="24" height="24" rx="8" fill="#F5F5F5"/>
<path d="M8.82666 5.33325H7.55999C6.09999 5.33325 5.33333 6.09992 5.33333 7.55325V8.81992C5.33333 10.2733 6.09999 11.0399 7.55333 11.0399H8.81999C10.2733 11.0399 11.04 10.2733 11.04 8.81992V7.55325C11.0467 6.09992 10.28 5.33325 8.82666 5.33325Z" fill="#212121"/>
<path d="M16.4467 5.33325H15.18C13.7267 5.33325 12.96 6.09992 12.96 7.55325V8.81992C12.96 10.2733 13.7267 11.0399 15.18 11.0399H16.4467C17.9 11.0399 18.6667 10.2733 18.6667 8.81992V7.55325C18.6667 6.09992 17.9 5.33325 16.4467 5.33325Z" fill="#212121"/>
<path d="M16.4467 12.9534H15.18C13.7267 12.9534 12.96 13.72 12.96 15.1734V16.44C12.96 17.8934 13.7267 18.66 15.18 18.66H16.4467C17.9 18.66 18.6667 17.8934 18.6667 16.44V15.1734C18.6667 13.72 17.9 12.9534 16.4467 12.9534Z" fill="#212121"/>
<path d="M8.82666 12.9534H7.55999C6.09999 12.9534 5.33333 13.72 5.33333 15.1734V16.44C5.33333 17.9 6.09999 18.6667 7.55333 18.6667H8.81999C10.2733 18.6667 11.04 17.9 11.04 16.4467V15.18C11.0467 13.72 10.28 12.9534 8.82666 12.9534Z" fill="#212121"/>
</svg>
