<svg width="16" height="16" viewBox="0 0 16 16" fill="none" xmlns="http://www.w3.org/2000/svg">
<g id="vuesax/linear/receipt-2">
<g id="receipt-2">
<path id="Vector" d="M4.48683 13.1333C5.0335 12.5466 5.86683 12.5933 6.34683 13.2333L7.02016 14.1333C7.56016 14.8466 8.4335 14.8466 8.9735 14.1333L9.64683 13.2333C10.1268 12.5933 10.9602 12.5466 11.5068 13.1333C12.6935 14.3999 13.6602 13.9799 13.6602 12.2066V4.69325C13.6668 2.00659 13.0402 1.33325 10.5202 1.33325H5.48016C2.96016 1.33325 2.3335 2.00659 2.3335 4.69325V12.1999C2.3335 13.9799 3.30683 14.3933 4.48683 13.1333Z" stroke="white" stroke-linecap="round" stroke-linejoin="round"/>
<path id="Vector_2" d="M5.39754 7.33333H5.40353" stroke="white" stroke-linecap="round" stroke-linejoin="round"/>
<path id="Vector_3" d="M7.26562 7.33325H10.9323" stroke="white" stroke-linecap="round" stroke-linejoin="round"/>
<path id="Vector_4" d="M5.39754 4.66659H5.40353" stroke="white" stroke-linecap="round" stroke-linejoin="round"/>
<path id="Vector_5" d="M7.26562 4.66675H10.9323" stroke="white" stroke-linecap="round" stroke-linejoin="round"/>
</g>
</g>
</svg>
