<svg width="180" height="52" viewBox="0 0 180 52" fill="none" xmlns="http://www.w3.org/2000/svg">
<path d="M25.026 0C21.3941 0 18.4716 2.7981 18.4716 6.65941C18.4716 10.5171 21.3941 13.3152 25.026 13.3152C28.6509 13.3152 31.5947 10.5171 31.5947 6.65941C31.5947 2.7981 28.6509 0 25.026 0ZM25.0225 11.6234C22.2276 11.6234 20.3691 9.59042 20.3691 6.65941C20.3691 3.69249 22.2276 1.69179 25.0225 1.69179C27.8422 1.69179 29.6972 3.69249 29.6972 6.65941C29.6972 9.59042 27.8387 11.6234 25.0225 11.6234Z" fill="#91BF3E"/>
<path d="M134.356 0C130.728 0 127.805 2.7981 127.805 6.65941C127.805 10.5171 130.728 13.3152 134.356 13.3152C137.985 13.3152 140.928 10.5171 140.928 6.65941C140.925 2.7981 137.981 0 134.356 0ZM134.356 11.6234C131.561 11.6234 129.699 9.59042 129.699 6.65941C129.699 3.69249 131.565 1.69179 134.356 1.69179C137.172 1.69179 139.027 3.69249 139.027 6.65941C139.027 9.59042 137.172 11.6234 134.356 11.6234Z" fill="#91BF3E"/>
<path d="M178.446 16.5515C177.418 15.8655 176.169 15.5206 174.712 15.5206H160.659V30.5241H168.966V17.6578H171.658V30.5241H180V19.0982C180 18.0924 179.482 17.2412 178.446 16.5515Z" fill="#0E75BB"/>
<path d="M141.493 29.4213C142.571 30.1648 143.894 30.524 145.447 30.524H153.601C155.158 30.524 156.478 30.1612 157.57 29.4213C158.663 28.685 159.209 27.787 159.209 26.731V19.3208C159.209 18.2648 158.663 17.3668 157.57 16.6269C156.478 15.8905 155.158 15.5242 153.601 15.5242H145.447C143.894 15.5242 142.571 15.8941 141.493 16.6269C140.414 17.3668 139.875 18.2648 139.875 19.3208V26.7345C139.875 27.787 140.414 28.685 141.493 29.4213ZM148.253 17.6973H150.835V28.4658H148.253V17.6973Z" fill="#0E75BB"/>
<path d="M98.6008 29.4788C99.6187 30.1792 100.857 30.5241 102.314 30.5241H116.406V15.5206H108.067V28.3905H105.372V15.5206H97.0686V26.9537C97.0722 27.9379 97.5793 28.7748 98.6008 29.4788Z" fill="#0E75BB"/>
<path d="M85.8611 26.731V19.3208C85.8611 18.2648 85.3148 17.3668 84.226 16.6269C83.1336 15.8905 81.8106 15.5242 80.2571 15.5242H72.0995C70.546 15.5242 69.2301 15.8941 68.1519 16.6269C67.0666 17.3668 66.531 18.2648 66.531 19.3208V26.7345C66.531 27.7906 67.0701 28.685 68.1519 29.4249C69.2301 30.1684 70.5495 30.5276 72.0995 30.5276H80.2571C81.8106 30.5276 83.1336 30.1648 84.226 29.4249C85.3184 28.685 85.8611 27.787 85.8611 26.731ZM77.4871 28.4658H74.9014V17.6973H77.4871V28.4658Z" fill="#0E75BB"/>
<path d="M56.0819 16.6233C54.9895 17.3633 54.4433 18.2613 54.4433 19.3173V28.3546H51.9995V30.5241H57.2133C58.7633 30.5241 60.0898 30.1613 61.1786 29.4213C62.2675 28.685 62.8208 27.787 62.8208 26.731V17.6973H65.0766V15.5206H60.0153C58.4866 15.5206 57.1778 15.8906 56.0819 16.6233Z" fill="#0E75BB"/>
<path d="M47.1156 19.3209L41.5117 15.5206H32.0417V17.6973H38.7381L30.7649 26.731L36.3759 30.5241H45.8423V28.3546H39.1424L47.1156 19.3209Z" fill="#0E75BB"/>
<path d="M29.0905 14.1556C27.9698 15.0321 26.5688 15.5673 25.0259 15.5673C23.4866 15.5673 22.0892 15.0357 20.9719 14.1628V30.5276H29.0905V14.1556Z" fill="#0E75BB"/>
<path d="M138.424 14.1556C137.304 15.0321 135.906 15.5673 134.356 15.5673C132.817 15.5673 131.419 15.0357 130.306 14.1628V30.5276H138.424V14.1556Z" fill="#0E75BB"/>
<path d="M17.7872 16.5909C16.7515 15.9013 15.5101 15.5601 14.056 15.5601H8.30305V12.6255H8.28177V12.4962C8.28177 11.4653 7.74621 10.5817 6.67507 9.84173C5.60039 9.10539 4.29872 8.73901 2.76296 8.73901H0V12.119V30.5671H14.056C15.5101 30.5671 16.7515 30.2187 17.7872 29.5183C18.8193 28.8178 19.3336 27.9737 19.3336 26.9895V19.134C19.3336 18.1283 18.8193 17.277 17.7872 16.5909ZM10.9951 28.4299H8.30305V17.7332H10.9951V28.4299Z" fill="#0E75BB"/>
<path d="M128.816 28.3904H126.195V17.6972H128.855V15.5205H126.195V12.3201H126.167C126.117 11.3503 125.592 10.5062 124.571 9.79862C123.492 9.05869 122.177 8.68872 120.637 8.68872H117.857V12.3992V26.95C117.857 27.9306 118.367 28.7675 119.382 29.4751C120.403 30.1756 121.655 30.5204 123.134 30.5204H128.813V28.3904H128.816Z" fill="#0E75BB"/>
<path d="M95.6215 28.43H95.6179V17.7332H95.6215V15.5565H95.6179V12.6219H95.5967V12.4926C95.5967 11.4617 95.0646 10.5781 93.99 9.83819C92.9188 9.10185 91.6171 8.73547 90.0849 8.73547H87.3149V12.1155V30.5636H95.6215V28.43Z" fill="#0E75BB"/>
<path d="M22.3024 40.3909H20.9866V48.0883H22.3024V40.3909Z" fill="#0E75BB"/>
<path d="M27.9559 40.2581C26.7961 40.2581 26.069 40.7645 25.2497 41.271L24.9198 40.3874H23.9338V48.0848H25.2497V42.2588C26.2109 41.7523 26.7394 41.4757 27.7963 41.4757C28.456 41.4757 28.9561 41.8816 28.9561 42.7796V48.0848H30.272V42.7796C30.2755 41.4613 29.5307 40.2581 27.9559 40.2581Z" fill="#0E75BB"/>
<path d="M35.6025 43.6237H33.4709C32.9992 43.6237 32.6409 43.6093 32.6409 42.8837V42.3054C32.6409 41.8564 32.6693 41.5511 33.4709 41.5511H37.1205V40.5921C36.4183 40.4484 34.2441 40.3191 33.2971 40.3191C31.8252 40.3191 31.3215 41.0878 31.3215 42.2731V42.9412C31.3215 44.4354 31.9919 44.8844 33.3397 44.8844H35.4713C36.0423 44.8844 36.1877 45.143 36.1877 45.61V46.217C36.1877 46.9857 35.5138 46.9103 35.4713 46.9103H31.6372V47.837C32.1834 47.9807 34.7442 48.1567 35.6451 48.1567C36.5602 48.1567 37.5071 47.837 37.5071 46.2601V45.5346C37.5071 44.4354 36.9042 43.6237 35.6025 43.6237Z" fill="#0E75BB"/>
<path d="M42.8204 40.3048C41.8593 40.3048 40.5292 40.9118 40.1426 41.2172L39.8447 40.391H38.8445V52.0001H40.132V47.6503C40.9903 47.9987 42.182 48.1998 42.824 48.1998C44.9698 48.1998 45.3138 46.2458 45.3138 44.1984C45.3103 42.2875 44.8386 40.3048 42.8204 40.3048ZM42.675 46.9822C41.689 46.9822 41.0009 46.8816 40.1426 46.6338V42.169C40.8165 41.8637 41.6465 41.544 42.675 41.544C43.5192 41.544 43.9909 42.3845 43.9909 44.2236C43.9944 46.4793 43.505 46.9822 42.675 46.9822Z" fill="#0E75BB"/>
<path d="M48.0732 40.3909H46.7573V48.0883H48.0732V40.3909Z" fill="#0E75BB"/>
<path d="M51.0241 41.3608L50.7084 40.391H49.7083V48.0885H51.0241V42.4923C51.9676 41.8996 52.5563 41.6518 53.6133 41.6518C54.0283 41.6518 54.5 41.6805 54.688 41.7236V40.4198C54.5035 40.3335 54.0708 40.3048 53.6878 40.3048C52.5705 40.3048 51.7973 40.8544 51.0241 41.3608Z" fill="#0E75BB"/>
<path d="M61.6612 43.0706C61.6612 40.5203 60.5723 40.33 58.6677 40.33C56.3055 40.33 55.3479 40.7933 55.3479 44.1985C55.3479 47.1546 55.9189 48.1567 57.8519 48.1567C59.0401 48.1567 60.3702 48.0993 61.5122 47.7509V46.781C60.4376 46.9535 59.4232 46.9391 58.1499 46.9391C57.0326 46.9391 56.6602 46.5907 56.6602 44.8953H59.6537C61.0334 44.8953 61.6612 44.2595 61.6612 43.0706ZM56.6673 43.7243C56.6531 41.5656 57.2419 41.5368 58.7138 41.5368C60.1006 41.5368 60.3453 41.6805 60.3453 43.0562C60.3453 43.4908 60.09 43.7243 59.5154 43.7243H56.6673Z" fill="#0E75BB"/>
<path d="M78.0121 43.6237H75.8804C75.4087 43.6237 75.0505 43.6093 75.0505 42.8837V42.3054C75.0505 41.8564 75.0789 41.5511 75.8804 41.5511H79.5301V40.5921C78.8278 40.4484 76.6536 40.3191 75.7102 40.3191C74.2347 40.3191 73.7346 41.0878 73.7346 42.2731V42.9412C73.7346 44.4354 74.405 44.8844 75.7528 44.8844H77.8844C78.4554 44.8844 78.6008 45.143 78.6008 45.61V46.217C78.6008 46.9857 77.9269 46.9103 77.8844 46.9103H74.0503V47.837C74.5929 47.9807 77.1573 48.1567 78.0582 48.1567C78.9732 48.1567 79.9167 47.837 79.9167 46.2601V45.5346C79.9167 44.4354 79.3173 43.6237 78.0121 43.6237Z" fill="#0E75BB"/>
<path d="M84.875 40.2436C83.4598 40.258 82.2432 40.3873 81.2253 40.6926V41.605C82.4135 41.5188 83.8287 41.4469 84.7615 41.4469C85.4602 41.4469 85.8929 41.6948 85.8929 42.564C85.9071 42.5784 85.8929 43.4045 85.8929 43.4045C85.8929 43.4225 82.9739 43.4045 82.9739 43.4045C81.6722 43.4045 80.9841 44.2307 80.9841 45.3765V46.217C80.9841 47.3916 81.7999 48.1566 82.9597 48.171C84.2188 48.171 85.8503 47.2299 85.8929 47.1868L86.2086 48.0848H87.2088V42.5497C87.2088 40.8686 86.1766 40.2293 84.875 40.2436ZM85.8894 46.2457C85.8894 46.2457 84.1727 46.9533 83.1122 46.9533C82.6547 46.9533 82.2964 46.7666 82.2964 46.0841V45.4591C82.2964 45.0245 82.4951 44.6186 83.0838 44.5611L85.8894 44.36V46.2457Z" fill="#0E75BB"/>
<path d="M90.8299 38.2286H89.7978L89.5105 40.373L88.1521 40.6783V41.5763H89.5105V45.3299C89.5105 47.3737 90.2837 48.0669 91.401 48.0669H92.7878V47.1689C92.6849 47.1689 91.5996 46.8672 91.5996 46.8672C91.1421 46.7487 90.8264 46.4757 90.8264 45.2437V41.5763H92.9013V40.373H90.8264V38.2286H90.8299Z" fill="#0E75BB"/>
<path d="M95.4125 40.3909H94.0967V48.0883H95.4125V40.3909Z" fill="#0E75BB"/>
<path d="M101.052 43.6237H98.9201C98.4484 43.6237 98.0902 43.6093 98.0902 42.8837V42.3054C98.0902 41.8564 98.1185 41.5511 98.9201 41.5511H102.57V40.5921C101.867 40.4484 99.6933 40.3191 98.7463 40.3191C97.2709 40.3191 96.7708 41.0878 96.7708 42.2731V42.9412C96.7708 44.4354 97.4411 44.8844 98.7889 44.8844H100.921C101.492 44.8844 101.637 45.143 101.637 45.61V46.217C101.637 46.9857 100.963 46.9103 100.921 46.9103H97.0864V47.837C97.6326 47.9807 100.193 48.1567 101.094 48.1567C102.009 48.1567 102.953 47.837 102.953 46.2601V45.5346C102.956 44.4354 102.353 43.6237 101.052 43.6237Z" fill="#0E75BB"/>
<path d="M104.804 38.9542V40.3874L103.474 40.6352V41.5907H104.804V48.0848H106.12V41.5907H108.124V40.3874H106.12V39.0835C106.12 38.3579 106.134 37.8515 107.021 37.8658C107.021 37.8658 108.656 37.8802 108.67 37.8802V37.0397C107.996 36.8098 107.397 36.6913 106.695 36.6913C104.978 36.6949 104.804 38.0275 104.804 38.9542Z" fill="#0E75BB"/>
<path d="M113.239 46.7953C113.21 46.7953 112.583 47.0144 112.338 46.2314L110.65 40.3909H109.231L110.994 46.393C111.437 47.916 112.352 48.0884 112.856 48.0884L111.582 52H112.455L113.512 50.5201L116.676 40.3873H115.243L113.239 46.7953Z" fill="#0E75BB"/>
<path d="M130.923 38.2286H129.891L129.607 40.373L128.249 40.6783V41.5763H129.607V45.3299C129.607 47.3737 130.38 48.0669 131.494 48.0669H132.881V47.1689C132.782 47.1689 131.693 46.8672 131.693 46.8672C131.235 46.7487 130.92 46.4757 130.92 45.2437V41.5763H132.994V40.373H130.92V38.2286H130.923Z" fill="#0E75BB"/>
<path d="M135.519 41.3608L135.204 40.391H134.204V48.0885H135.519V42.4923C136.463 41.8996 137.052 41.6518 138.112 41.6518C138.527 41.6518 138.999 41.6805 139.183 41.7236V40.4198C138.999 40.3335 138.566 40.3048 138.183 40.3048C137.066 40.3048 136.293 40.8544 135.519 41.3608Z" fill="#0E75BB"/>
<path d="M145.156 46.2026C144.185 46.727 143.667 46.9856 142.606 46.9856C141.95 46.9856 141.446 46.6085 141.446 45.6961V40.3909H140.131V45.6818C140.131 47.0144 140.861 48.2177 142.45 48.2177C143.61 48.2177 144.312 47.7112 145.156 47.2191L145.486 48.0884H146.472V40.3909H145.156V46.2026Z" fill="#0E75BB"/>
<path d="M152.072 43.6237H149.941C149.469 43.6237 149.111 43.6093 149.111 42.8837V42.3054C149.111 41.8564 149.139 41.5511 149.941 41.5511H153.591V40.5921C152.888 40.4484 150.714 40.3191 149.767 40.3191C148.292 40.3191 147.792 41.0878 147.792 42.2731V42.9412C147.792 44.4354 148.465 44.8844 149.81 44.8844H151.941C152.512 44.8844 152.658 45.143 152.658 45.61V46.217C152.658 46.9857 151.984 46.9103 151.941 46.9103H148.107V47.837C148.65 47.9807 151.211 48.1567 152.115 48.1567C153.03 48.1567 153.974 47.837 153.974 46.2601V45.5346C153.974 44.4354 153.371 43.6237 152.072 43.6237Z" fill="#0E75BB"/>
<path d="M157.169 38.2286H156.137L155.853 40.373L154.491 40.6783V41.5763H155.853V45.3299C155.853 47.3737 156.627 48.0669 157.74 48.0669H159.127V47.1689C159.028 47.1689 157.939 46.8672 157.939 46.8672C157.481 46.7487 157.166 46.4757 157.166 45.2437V41.5763H159.241V40.373H157.166V38.2286H157.169Z" fill="#0E75BB"/>
<path d="M21.6782 37.1509C21.1568 37.1509 20.7383 37.5783 20.7383 38.1063C20.7383 38.6343 21.1604 39.0618 21.6782 39.0618C22.1996 39.0618 22.6216 38.6343 22.6216 38.1063C22.6216 37.5783 22.1996 37.1509 21.6782 37.1509Z" fill="#0E75BB"/>
<path d="M47.4168 37.1509C46.8955 37.1509 46.4734 37.5783 46.4734 38.1063C46.4734 38.6343 46.8955 39.0618 47.4168 39.0618C47.9382 39.0618 48.3603 38.6343 48.3603 38.1063C48.3603 37.5783 47.9382 37.1509 47.4168 37.1509Z" fill="#0E75BB"/>
<path d="M94.7561 37.1509C94.2347 37.1509 93.8162 37.5783 93.8162 38.1063C93.8162 38.6343 94.2382 39.0618 94.7561 39.0618C95.2774 39.0618 95.6995 38.6343 95.6995 38.1063C95.696 37.5783 95.2774 37.1509 94.7561 37.1509Z" fill="#0E75BB"/>
<path d="M67.6976 48.2142C68.2186 48.2142 68.641 47.7865 68.641 47.2588C68.641 46.7311 68.2186 46.3033 67.6976 46.3033C67.1765 46.3033 66.7542 46.7311 66.7542 47.2588C66.7542 47.7865 67.1765 48.2142 67.6976 48.2142Z" fill="#0E75BB"/>
<path d="M122.077 46.3069C121.556 46.3069 121.137 46.7343 121.137 47.2623C121.137 47.7904 121.56 48.2178 122.077 48.2178C122.599 48.2178 123.021 47.7904 123.021 47.2623C123.017 46.7343 122.599 46.3069 122.077 46.3069Z" fill="#0E75BB"/>
</svg>
