<svg width="16" height="16" viewBox="0 0 16 16" fill="none" xmlns="http://www.w3.org/2000/svg">
<path d="M5.99935 2H9.33268C11.5418 2 13.3327 3.79086 13.3327 6V10.6667M6.99935 14C5.44293 14 4.66472 14 4.07562 13.6851C3.61048 13.4365 3.22951 13.0555 2.98089 12.5904C2.66602 12.0013 2.66602 11.2231 2.66602 9.66667V8.33333C2.66602 6.77691 2.66602 5.9987 2.98089 5.40961C3.22951 4.94447 3.61048 4.5635 4.07562 4.31488C4.66472 4 5.44293 4 6.99935 4C8.55577 4 9.33398 4 9.92307 4.31488C10.3882 4.5635 10.7692 4.94447 11.0178 5.40961C11.3327 5.9987 11.3327 6.77691 11.3327 8.33333V9.66667C11.3327 11.2231 11.3327 12.0013 11.0178 12.5904C10.7692 13.0555 10.3882 13.4365 9.92307 13.6851C9.33398 14 8.55577 14 6.99935 14Z" stroke="#64893C" stroke-width="1.5" stroke-linecap="round"/>
</svg>
