<svg width="16" height="16" viewBox="0 0 16 16" fill="none" xmlns="http://www.w3.org/2000/svg">
<path d="M5.99935 12.6667C5.99935 13.1667 5.85935 13.64 5.61268 14.04C5.15268 14.8133 4.30602 15.3333 3.33268 15.3333C2.35935 15.3333 1.51268 14.8133 1.05268 14.04C0.806017 13.64 0.666016 13.1667 0.666016 12.6667C0.666016 11.1933 1.85935 10 3.33268 10C4.80602 10 5.99935 11.1933 5.99935 12.6667Z" stroke="white" stroke-miterlimit="10" stroke-linecap="round" stroke-linejoin="round"/>
<path d="M2.29297 12.6665L2.95297 13.3265L4.37297 12.0132" stroke="white" stroke-linecap="round" stroke-linejoin="round"/>
<path d="M11.8336 4.70014C11.6736 4.67348 11.507 4.66682 11.3336 4.66682H4.66695C4.48029 4.66682 4.30029 4.68015 4.12695 4.70681C4.22029 4.52015 4.35362 4.34684 4.51362 4.18684L6.68029 2.0135C7.59362 1.10683 9.07362 1.10683 9.98695 2.0135L11.1536 3.19347C11.5803 3.61347 11.807 4.14681 11.8336 4.70014Z" stroke="white" stroke-linecap="round" stroke-linejoin="round"/>
<path d="M14.6673 7.99984V11.3332C14.6673 13.3332 13.334 14.6665 11.334 14.6665H5.08732C5.29399 14.4932 5.47398 14.2798 5.61398 14.0398C5.86065 13.6398 6.00065 13.1665 6.00065 12.6665C6.00065 11.1932 4.80732 9.99984 3.33398 9.99984C2.53398 9.99984 1.82065 10.3532 1.33398 10.9065V7.99984C1.33398 6.1865 2.42732 4.91984 4.12732 4.7065C4.30065 4.67984 4.48065 4.6665 4.66732 4.6665H11.334C11.5073 4.6665 11.674 4.67316 11.834 4.69983C13.554 4.89983 14.6673 6.17317 14.6673 7.99984Z" stroke="white" stroke-linecap="round" stroke-linejoin="round"/>
<path d="M14.6673 8.3335H12.6673C11.934 8.3335 11.334 8.9335 11.334 9.66683C11.334 10.4002 11.934 11.0002 12.6673 11.0002H14.6673" stroke="white" stroke-linecap="round" stroke-linejoin="round"/>
</svg>
