<svg width="33" height="32" viewBox="0 0 33 32" fill="none" xmlns="http://www.w3.org/2000/svg">
<path d="M19.9686 5.26673V10.3334H17.9686V5.26673C17.9686 4.90673 17.6486 4.7334 17.4353 4.7334C17.3686 4.7334 17.302 4.74673 17.2353 4.7734L6.66195 8.76007C5.95529 9.02673 5.50195 9.6934 5.50195 10.4534V11.3467C4.28862 12.2534 3.50195 13.7067 3.50195 15.3467V10.4534C3.50195 8.86673 4.47529 7.4534 5.95529 6.8934L16.542 2.8934C16.8353 2.78673 17.142 2.7334 17.4353 2.7334C18.7686 2.7334 19.9686 3.8134 19.9686 5.26673Z" fill="#64893C"/>
<path d="M28.8342 19.3332V20.6665C28.8342 21.0265 28.5542 21.3198 28.1809 21.3332H26.2342C25.5276 21.3332 24.8876 20.8132 24.8342 20.1198C24.7942 19.7065 24.9542 19.3198 25.2209 19.0532C25.4609 18.7998 25.7942 18.6665 26.1542 18.6665H28.1676C28.5542 18.6798 28.8342 18.9732 28.8342 19.3332Z" fill="#64893C"/>
<path d="M26.142 17.2668H27.502C28.2353 17.2668 28.8353 16.6668 28.8353 15.9335V15.3468C28.8353 12.5868 26.582 10.3335 23.822 10.3335H8.51529C7.38195 10.3335 6.34195 10.7068 5.50195 11.3468C4.28862 12.2535 3.50195 13.7068 3.50195 15.3468V24.3202C3.50195 27.0802 5.75529 29.3335 8.51529 29.3335H23.822C26.582 29.3335 28.8353 27.0802 28.8353 24.3202V24.0668C28.8353 23.3335 28.2353 22.7335 27.502 22.7335H26.342C25.062 22.7335 23.8353 21.9468 23.502 20.7068C23.222 19.6935 23.5553 18.7202 24.222 18.0668C24.7153 17.5602 25.3953 17.2668 26.142 17.2668ZM18.8353 17.0002H9.50195C8.95529 17.0002 8.50195 16.5468 8.50195 16.0002C8.50195 15.4535 8.95529 15.0002 9.50195 15.0002H18.8353C19.382 15.0002 19.8353 15.4535 19.8353 16.0002C19.8353 16.5468 19.382 17.0002 18.8353 17.0002Z" fill="#64893C"/>
</svg>
