<svg width="16" height="16" viewBox="0 0 16 16" fill="none" xmlns="http://www.w3.org/2000/svg">
<path d="M4.48732 13.1335C5.03398 12.5468 5.86732 12.5935 6.34732 13.2335L7.02065 14.1335C7.56065 14.8468 8.43398 14.8468 8.97398 14.1335L9.64732 13.2335C10.1273 12.5935 10.9607 12.5468 11.5073 13.1335C12.694 14.4002 13.6607 13.9802 13.6607 12.2068V4.6935C13.6673 2.00683 13.0407 1.3335 10.5207 1.3335H5.48065C2.96065 1.3335 2.33398 2.00683 2.33398 4.6935V12.2002C2.33398 13.9802 3.30732 14.3935 4.48732 13.1335Z" stroke="#64893C" stroke-width="1.5" stroke-linecap="round" stroke-linejoin="round"/>
<path d="M5.39803 7.33333H5.40402" stroke="#64893C" stroke-width="1.5" stroke-linecap="round" stroke-linejoin="round"/>
<path d="M7.26562 7.3335H10.9323" stroke="#64893C" stroke-width="1.5" stroke-linecap="round" stroke-linejoin="round"/>
<path d="M5.39803 4.66683H5.40402" stroke="#64893C" stroke-width="1.5" stroke-linecap="round" stroke-linejoin="round"/>
<path d="M7.26562 4.6665H10.9323" stroke="#64893C" stroke-width="1.5" stroke-linecap="round" stroke-linejoin="round"/>
</svg>
