<svg width="17" height="16" viewBox="0 0 17 16" fill="none" xmlns="http://www.w3.org/2000/svg">
<path d="M7.66707 11.2402V12.5936C7.66707 13.7403 6.6004 14.6669 5.28707 14.6669C3.97374 14.6669 2.90039 13.7403 2.90039 12.5936V11.2402C2.90039 12.3869 3.96707 13.2002 5.28707 13.2002C6.6004 13.2002 7.66707 12.3802 7.66707 11.2402Z" stroke="#64893C" stroke-linecap="round" stroke-linejoin="round"/>
<path d="M7.66589 9.40649C7.66589 9.73983 7.57256 10.0465 7.41256 10.3132C7.01922 10.9598 6.21255 11.3665 5.27922 11.3665C4.34588 11.3665 3.53921 10.9532 3.14587 10.3132C2.98587 10.0465 2.89258 9.73983 2.89258 9.40649C2.89258 8.83316 3.15923 8.31983 3.5859 7.94649C4.01923 7.56649 4.61254 7.33984 5.27254 7.33984C5.93254 7.33984 6.5259 7.57316 6.95923 7.94649C7.39923 8.31316 7.66589 8.83316 7.66589 9.40649Z" stroke="#64893C" stroke-linecap="round" stroke-linejoin="round"/>
<path d="M7.66707 9.40682V11.2402C7.66707 12.3868 6.6004 13.2002 5.28707 13.2002C3.97374 13.2002 2.90039 12.3802 2.90039 11.2402V9.40682C2.90039 8.26015 3.96707 7.3335 5.28707 7.3335C5.94707 7.3335 6.54042 7.56681 6.97375 7.94014C7.40042 8.31348 7.66707 8.83349 7.66707 9.40682Z" stroke="#64893C" stroke-linecap="round" stroke-linejoin="round"/>
<path d="M15.1675 7.31327V8.68665C15.1675 9.05331 14.8741 9.35328 14.5008 9.36662H13.1941C12.4741 9.36662 11.8141 8.83995 11.7541 8.11995C11.7141 7.69995 11.8741 7.30662 12.1541 7.03328C12.4008 6.77995 12.7408 6.6333 13.1141 6.6333H14.5008C14.8741 6.64663 15.1675 6.94661 15.1675 7.31327Z" stroke="#64893C" stroke-width="1.5" stroke-linecap="round" stroke-linejoin="round"/>
<path d="M1.83398 7.00016V5.66683C1.83398 3.8535 2.92732 2.58683 4.62732 2.37349C4.80065 2.34683 4.98065 2.3335 5.16732 2.3335H11.1673C11.3407 2.3335 11.5073 2.34015 11.6673 2.36682C13.3873 2.56682 14.5007 3.84016 14.5007 5.66683V6.6335H13.114C12.7406 6.6335 12.4006 6.78015 12.154 7.03349C11.874 7.30682 11.714 7.70016 11.754 8.12016C11.814 8.84016 12.474 9.36682 13.194 9.36682H14.5007V10.3335C14.5007 12.3335 13.1673 13.6668 11.1673 13.6668H9.50065" stroke="#64893C" stroke-width="1.5" stroke-linecap="round" stroke-linejoin="round"/>
</svg>
